<svg width="150" height="57" xmlns="http://www.w3.org/2000/svg"><g fill="none" fill-rule="evenodd"><path fill="#CF141F" d="M0 56.702h149.823V.602H0z"/><path fill="#FEFEFE" d="M89.388 14.616h-5.824V42.64h11.885v-5.467h-6.06zm8.893 28.024h5.668V14.616h-5.668zm14.339-22.57h6.086v-5.454h-11.911V42.64h5.825V31.664h6.106v-5.425h-6.106zm20.729 11.594V26.24h-6.106v-6.17h6.086v-5.454h-11.911V42.64h11.93v-5.466h-6.105v-5.51zM61.503 42.63l-.029.059h5.9L80.78 14.676l.03-.06h-5.98zm15.46-7.644a3.833 3.833 0 00-3.829 3.829 3.833 3.833 0 003.829 3.828 3.833 3.833 0 003.828-3.828 3.833 3.833 0 00-3.828-3.83m-11.604-12.68a3.833 3.833 0 003.828-3.829 3.833 3.833 0 00-3.828-3.829 3.833 3.833 0 00-3.828 3.83 3.833 3.833 0 003.828 3.828M32.74 37.146h2.935V20.07H32.74v17.076zm4.459-22.53H31.3a4.353 4.353 0 00-4.348 4.348v19.368A4.352 4.352 0 0031.3 42.68h5.899a4.352 4.352 0 004.347-4.348V18.964a4.353 4.353 0 00-4.347-4.348zm12.818 22.557h2.936V20.07h-2.936v17.103zm4.46-22.557h-5.9a4.353 4.353 0 00-4.347 4.348v19.368a4.353 4.353 0 004.348 4.348h5.9a4.353 4.353 0 004.347-4.348V18.964a4.353 4.353 0 00-4.348-4.348zM16.474 20.07h1.756v22.57h5.825V14.656h-7.58z"/></g></svg>