<svg xmlns="http://www.w3.org/2000/svg" width="154.485" height="342.266" viewBox="0 0 154.485 342.266"><g id="Сгруппировать_1623" data-name="Сгруппировать 1623" transform="translate(-111.601 -286.751)" fill="#231f20"><path id="Контур_2625" data-name="Контур 2625" d="M135.135 450.323a2.632 2.632 0 01-1.777-.568 2.2 2.2 0 01.012-3.168 2.652 2.652 0 011.765-.566 4.512 4.512 0 011.511.288 3.452 3.452 0 011.2.653v-4.4a7.842 7.842 0 00-3.554-.8 6.424 6.424 0 00-4.751 1.8 6.79 6.79 0 000 9.213 6.425 6.425 0 004.751 1.8 8 8 0 003.627-.824v-4.371a3.726 3.726 0 01-1.1.592 4.386 4.386 0 01-1.684.351z" transform="translate(16.377 157.336)"/><path id="Контур_2626" data-name="Контур 2626" d="M147.437 456.712v-7.544a5.181 5.181 0 00-1.161-3.663 4.032 4.032 0 00-3.1-1.245 4.173 4.173 0 00-1.959.508 4.4 4.4 0 00-1.523 1.257V439.3h-4.812v17.409h4.933v-6.093a2.116 2.116 0 01.445-1.4 1.516 1.516 0 011.223-.53.917.917 0 01.737.326 1.311 1.311 0 01.278.88v6.819z" transform="translate(23.636 154.839)"/><path id="Контур_2627" data-name="Контур 2627" d="M149.686 441.763a6.561 6.561 0 00-4.776 1.826 6.539 6.539 0 000 9.164 7.153 7.153 0 009.551 0 6.539 6.539 0 000-9.164 6.561 6.561 0 00-4.775-1.826zm1.461 8.114a1.992 1.992 0 01-2.924 0 2.745 2.745 0 010-3.411 1.988 1.988 0 012.924 0 2.744 2.744 0 010 3.411z" transform="translate(31.906 157.336)"/><path id="Контур_2628" data-name="Контур 2628" d="M156.259 443.5l-.193-1.378h-4.449v12.09h4.931v-5.029a2.431 2.431 0 01.9-2.078 3.325 3.325 0 012.077-.677 2.021 2.021 0 01.945.191v-4.81l-.8-.05a3.915 3.915 0 00-1.9.508 4.918 4.918 0 00-1.511 1.233z" transform="translate(40.615 157.336)"/><path id="Контур_2629" data-name="Контур 2629" d="M170.476 454.216v-7.544a5.19 5.19 0 00-1.161-3.663 4.029 4.029 0 00-3.1-1.245 4.236 4.236 0 00-2.225.665 3.9 3.9 0 00-1.523 1.535h-.048a1.559 1.559 0 00.1-.75l-.145-1.088h-4.447v12.09h4.931v-6.093a2.106 2.106 0 01.447-1.4 1.51 1.51 0 011.221-.53.917.917 0 01.737.326 1.31 1.31 0 01.278.88v6.819z" transform="translate(47.022 157.336)"/><path id="Контур_2630" data-name="Контур 2630" d="M173.255 452.692h.05l-.026.725.1.8h4.421v-7.544a4.444 4.444 0 00-1.558-3.6 6.853 6.853 0 00-4.51-1.306 11.845 11.845 0 00-4.618.75v4.328a6.707 6.707 0 013.748-1.04q2.031 0 2.031 1.138v.022a7.79 7.79 0 00-4.838.641 3.8 3.8 0 00-.856 6.033 4.093 4.093 0 002.718.945 3.293 3.293 0 003.338-1.892zm-1.86-1.765a.7.7 0 01-.8-.774.97.97 0 01.546-.87 2.553 2.553 0 011.63-.145 2.069 2.069 0 01-.373 1.332 1.233 1.233 0 01-.998.457z" transform="translate(55.292 157.336)"/><path id="Контур_2631" data-name="Контур 2631" d="M122.643 457.711a1.327 1.327 0 01-.887-.284 1.1 1.1 0 010-1.586 1.34 1.34 0 01.883-.282 2.25 2.25 0 01.756.145 1.746 1.746 0 01.6.326v-2.2a3.958 3.958 0 00-1.779-.4 3.218 3.218 0 00-2.376.9 3.4 3.4 0 000 4.608 3.22 3.22 0 002.376.9 4.013 4.013 0 001.816-.411v-2.188a1.845 1.845 0 01-.552.294 2.173 2.173 0 01-.837.178z" transform="translate(7.452 169.179)"/><path id="Контур_2632" data-name="Контур 2632" d="M126.234 453.431a3.288 3.288 0 00-2.388.911 3.272 3.272 0 000 4.584 3.579 3.579 0 004.776 0 3.267 3.267 0 000-4.584 3.284 3.284 0 00-2.388-.911zm.733 4.056a1 1 0 01-1.465 0 1.382 1.382 0 010-1.7 1 1 0 011.465 0 1.382 1.382 0 010 1.7z" transform="translate(11.477 169.179)"/><path id="Контур_2633" data-name="Контур 2633" d="M135.572 453.431a2.4 2.4 0 00-1.908 1.028 1.833 1.833 0 00-1.779-1.028 2 2 0 00-1.082.332 1.866 1.866 0 00-.729.768h-.026a.768.768 0 00.048-.375l-.073-.544H127.8v6.045h2.464v-3.107a.99.99 0 01.208-.659.694.694 0 01.566-.248.4.4 0 01.326.145.6.6 0 01.123.4v3.472h2.464v-3.11a1 1 0 01.208-.659.694.694 0 01.566-.248.4.4 0 01.326.145.6.6 0 01.123.4v3.472h2.464v-3.772a2.64 2.64 0 00-.562-1.832 1.923 1.923 0 00-1.504-.625z" transform="translate(16.442 169.179)"/><path id="Контур_2634" data-name="Контур 2634" d="M142.227 453.431a2.407 2.407 0 00-1.91 1.028 1.83 1.83 0 00-1.777-1.028 2.005 2.005 0 00-1.082.332 1.886 1.886 0 00-.731.768h-.027a.792.792 0 00.048-.375l-.073-.544h-2.225v6.045h2.466v-3.107a1.011 1.011 0 01.206-.659.7.7 0 01.568-.248.4.4 0 01.326.145.6.6 0 01.121.4v3.472h2.466v-3.11a1 1 0 01.205-.659.7.7 0 01.568-.248.407.407 0 01.328.145.609.609 0 01.119.4v3.472h2.466v-3.772a2.641 2.641 0 00-.564-1.832 1.919 1.919 0 00-1.498-.625z" transform="translate(23.195 169.179)"/><path id="Контур_2635" data-name="Контур 2635" d="M144.848 456.568a1.057 1.057 0 01-.222.7.755.755 0 01-.613.268.454.454 0 01-.367-.163.654.654 0 01-.141-.443v-3.407h-2.464v3.772a2.6 2.6 0 00.578 1.83 2.009 2.009 0 001.548.625 2.1 2.1 0 001.112-.332 1.971 1.971 0 00.764-.768h.024a.744.744 0 00-.05.375l.075.544h2.223v-6.045h-2.466z" transform="translate(29.882 169.27)"/><path id="Контур_2636" data-name="Контур 2636" d="M150.106 453.431a2.1 2.1 0 00-1.108.332 1.944 1.944 0 00-.764.768h-.024a.79.79 0 00.046-.375l-.071-.544h-2.225v6.045h2.464v-3.049a1.041 1.041 0 01.226-.7.754.754 0 01.609-.266.462.462 0 01.371.163.658.658 0 01.137.441v3.409h2.468v-3.772a2.6 2.6 0 00-.58-1.832 2.016 2.016 0 00-1.549-.62z" transform="translate(34.875 169.179)"/><path id="Контур_2637" data-name="Контур 2637" d="M152.111 452.05a1.32 1.32 0 00-.951.332 1.384 1.384 0 000 1.828 1.524 1.524 0 001.9 0 1.39 1.39 0 000-1.828 1.325 1.325 0 00-.949-.332z" transform="translate(39.802 167.777)"/><path id="Прямоугольник_470" data-name="Прямоугольник 470" transform="translate(190.676 622.791)" d="M0 0h2.468v6.045H0z"/><path id="Контур_2638" data-name="Контур 2638" d="M157.33 457.711a1.338 1.338 0 01-.891-.284 1.1 1.1 0 01.006-1.586 1.342 1.342 0 01.885-.282 2.268 2.268 0 01.756.145 1.774 1.774 0 01.6.326v-2.2a3.952 3.952 0 00-1.779-.4 3.211 3.211 0 00-2.374.9 3.4 3.4 0 000 4.608 3.212 3.212 0 002.374.9 3.993 3.993 0 001.813-.411v-2.188a1.825 1.825 0 01-.55.294 2.171 2.171 0 01-.84.178z" transform="translate(42.659 169.179)"/><path id="Контур_2639" data-name="Контур 2639" d="M160.484 453.431a5.934 5.934 0 00-2.309.375v2.164a3.356 3.356 0 011.874-.52q1.016 0 1.016.566v.014a3.9 3.9 0 00-2.418.318 1.9 1.9 0 00-.429 3.016 2.038 2.038 0 001.36.474 1.645 1.645 0 001.668-.943h.024l-.012.363.05.4h2.21v-3.772a2.234 2.234 0 00-.778-1.8 3.44 3.44 0 00-2.256-.655zm.332 4.35a.608.608 0 01-.5.232.347.347 0 01-.4-.387.485.485 0 01.274-.437 1.283 1.283 0 01.814-.07 1.02 1.02 0 01-.187.662z" transform="translate(46.744 169.179)"/><path id="Контур_2640" data-name="Контур 2640" d="M165.142 458.074v-1.753h1.39v-1.886h-1.39v-1.813h-2.392v1.813h-.727v1.886h.689v2.067a2.132 2.132 0 00.653 1.717 2.465 2.465 0 001.656.556 4.405 4.405 0 001.7-.266v-1.971a2.138 2.138 0 01-.919.23q-.66 0-.66-.58z" transform="translate(51.178 168.356)"/><path id="Контур_2641" data-name="Контур 2641" d="M167.223 452.05a1.318 1.318 0 00-.949.332 1.384 1.384 0 000 1.828 1.521 1.521 0 001.9 0 1.378 1.378 0 000-1.828 1.318 1.318 0 00-.951-.332z" transform="translate(55.142 167.777)"/><path id="Прямоугольник_471" data-name="Прямоугольник 471" transform="translate(221.131 622.791)" d="M0 0h2.466v6.045H0z"/><path id="Контур_2642" data-name="Контур 2642" d="M172.1 453.431a3.284 3.284 0 00-2.388.911 3.267 3.267 0 000 4.584 3.579 3.579 0 004.776 0 3.272 3.272 0 000-4.584 3.287 3.287 0 00-2.388-.911zm.731 4.056a1 1 0 01-1.465 0 1.382 1.382 0 010-1.7 1 1 0 011.465 0 1.382 1.382 0 010 1.7z" transform="translate(58.028 169.179)"/><path id="Контур_2643" data-name="Контур 2643" d="M177.81 453.431a2.1 2.1 0 00-1.112.332 1.937 1.937 0 00-.762.768h-.026a.77.77 0 00.05-.375l-.075-.544h-2.223v6.045h2.466v-3.049a1.061 1.061 0 01.222-.7.76.76 0 01.613-.266.454.454 0 01.367.163.649.649 0 01.141.441v3.409h2.464v-3.772a2.6 2.6 0 00-.578-1.832 2.018 2.018 0 00-1.547-.62z" transform="translate(62.992 169.179)"/><path id="Контур_2644" data-name="Контур 2644" d="M181.3 455.873q-.653-.145-.653-.339c0-.121.137-.183.413-.183a4.1 4.1 0 011.008.157 4.79 4.79 0 01.973.365v-2.067a6.121 6.121 0 00-2.2-.375 2.787 2.787 0 00-1.8.52 1.778 1.778 0 00-.641 1.463 1.665 1.665 0 00.52 1.324 3.592 3.592 0 001.511.7 1.063 1.063 0 00.109.024q.653.169.653.3c0 .121-.179.179-.534.179a3.826 3.826 0 01-1.062-.185 5.3 5.3 0 01-1.064-.429v2.126a5.688 5.688 0 002.152.389 3.471 3.471 0 002.031-.514 1.668 1.668 0 00.725-1.445 1.625 1.625 0 00-.5-1.288 3.914 3.914 0 00-1.641-.722z" transform="translate(67.797 169.179)"/><path id="Контур_2645" data-name="Контур 2645" d="M176.8 453.176h50.375a77.329 77.329 0 00-77.243-77.243v50.375a26.9 26.9 0 0126.868 26.868z" transform="translate(38.909 90.519)"/><path id="Контур_2646" data-name="Контур 2646" d="M188.844 390.864a26.869 26.869 0 010-53.738v-50.375a77.244 77.244 0 000 154.487z"/></g></svg>