<svg xmlns="http://www.w3.org/2000/svg" width="176.001" height="127.516" viewBox="0 0 176.001 127.516"><g id="Сгруппировать_1627" data-name="Сгруппировать 1627" transform="translate(-98.999 -840)" fill="#231f20"><g id="Сгруппировать_1626" data-name="Сгруппировать 1626" transform="translate(0 -14.023)"><path id="Контур_2647" data-name="Контур 2647" d="M476.377 377.661a3.419 3.419 0 01-.988.532 3.976 3.976 0 01-1.51.315 2.374 2.374 0 01-1.6-.51 1.983 1.983 0 01.011-2.847 2.392 2.392 0 011.586-.509 4.042 4.042 0 011.358.261 3.089 3.089 0 011.075.586v-3.955a7.062 7.062 0 00-3.193-.715 5.774 5.774 0 00-4.268 1.617 6.1 6.1 0 000 8.278 5.775 5.775 0 004.268 1.618 7.188 7.188 0 003.258-.739z" transform="translate(-272.484 533.053)"/><path id="Контур_2648" data-name="Контур 2648" d="M481.835 372.811a3.743 3.743 0 00-1.76.456 3.979 3.979 0 00-1.37 1.13v-6.039h-4.321V384h4.431v-5.474a1.892 1.892 0 01.4-1.26 1.357 1.357 0 011.1-.478.832.832 0 01.663.293 1.182 1.182 0 01.25.793V384h4.431v-6.779a4.661 4.661 0 00-1.043-3.289 3.622 3.622 0 00-2.781-1.121z" transform="translate(-266.689 531.06)"/><path id="Контур_2649" data-name="Контур 2649" d="M492.8 372.458a6.431 6.431 0 00-8.58 0 5.874 5.874 0 000 8.233 6.431 6.431 0 008.58 0 5.874 5.874 0 000-8.233zm-2.978 5.648a1.788 1.788 0 01-2.628 0 2.469 2.469 0 010-3.063 1.788 1.788 0 012.628 0 2.469 2.469 0 010 3.063z" transform="translate(-260.087 533.053)"/><path id="Контур_2650" data-name="Контур 2650" d="M496.64 371.274a4.395 4.395 0 00-1.358 1.108l-.174-1.238h-4v10.861h4.43v-4.52a2.192 2.192 0 01.806-1.866 3.006 3.006 0 011.868-.608 1.8 1.8 0 01.847.174v-4.323l-.717-.044a3.518 3.518 0 00-1.702.456z" transform="translate(-253.136 533.053)"/><path id="Контур_2651" data-name="Контур 2651" d="M504.875 370.818a3.8 3.8 0 00-2 .6 3.513 3.513 0 00-1.367 1.379h-.043a1.38 1.38 0 00.087-.673l-.13-.977h-4v10.861h4.431v-5.474a1.892 1.892 0 01.4-1.26 1.357 1.357 0 011.1-.478.832.832 0 01.663.293 1.183 1.183 0 01.25.793v6.126h4.434v-6.779a4.661 4.661 0 00-1.043-3.289 3.62 3.62 0 00-2.782-1.122z" transform="translate(-248.022 533.053)"/><path id="Контур_2652" data-name="Контур 2652" d="M512.067 380.637l-.024.652.089.717h3.973v-6.779a4 4 0 00-1.4-3.237 6.174 6.174 0 00-4.051-1.171 10.648 10.648 0 00-4.149.673v3.886a6.038 6.038 0 013.367-.932q1.825 0 1.825 1.021v.022a7 7 0 00-4.346.574 3.412 3.412 0 00-.769 5.422 3.675 3.675 0 002.442.847 2.961 2.961 0 003-1.694zm-.815-2a1.1 1.1 0 01-.9.413.625.625 0 01-.719-.7.874.874 0 01.491-.784 2.294 2.294 0 011.464-.129 1.85 1.85 0 01-.336 1.201z" transform="translate(-241.421 533.053)"/><path id="Контур_2653" data-name="Контур 2653" d="M452.552 388.242a3.606 3.606 0 001.631-.371v-1.964a1.7 1.7 0 01-.5.264 1.944 1.944 0 01-.755.159 1.182 1.182 0 01-.8-.257.99.99 0 01.005-1.423 1.186 1.186 0 01.791-.253 2.02 2.02 0 01.679.13 1.524 1.524 0 01.539.293v-1.979a3.532 3.532 0 00-1.6-.357 2.887 2.887 0 00-2.134.807 3.05 3.05 0 000 4.138 2.889 2.889 0 002.144.813z" transform="translate(-286.762 542.506)"/><path id="Контур_2654" data-name="Контур 2654" d="M456.562 388.242a2.946 2.946 0 002.145-.822 2.933 2.933 0 000-4.116 3.219 3.219 0 00-4.288 0 2.933 2.933 0 000 4.116 2.941 2.941 0 002.143.822zm-.662-3.642a.9.9 0 011.316 0 1.241 1.241 0 010 1.531.9.9 0 01-1.316 0 1.241 1.241 0 010-1.531z" transform="translate(-283.548 542.506)"/><path id="Контур_2655" data-name="Контур 2655" d="M465.45 382.486a2.157 2.157 0 00-1.716.923 1.644 1.644 0 00-1.6-.923 1.793 1.793 0 00-.972.3 1.672 1.672 0 00-.657.69h-.022a.718.718 0 00.042-.339l-.065-.487h-2v5.431h2.214v-2.791a.889.889 0 01.186-.592.625.625 0 01.51-.223.36.36 0 01.291.13.538.538 0 01.11.357v3.119h2.214v-2.791a.9.9 0 01.186-.592.623.623 0 01.509-.223.362.362 0 01.293.13.538.538 0 01.11.357v3.119h2.214v-3.389a2.377 2.377 0 00-.505-1.647 1.724 1.724 0 00-1.342-.559z" transform="translate(-279.586 542.506)"/><path id="Контур_2656" data-name="Контур 2656" d="M472.1 382.486a2.162 2.162 0 00-1.716.923 1.644 1.644 0 00-1.6-.923 1.8 1.8 0 00-.972.3 1.656 1.656 0 00-.655.69h-.024a.7.7 0 00.045-.339l-.067-.487h-2v5.431h2.218v-2.791a.907.907 0 01.183-.592.627.627 0 01.51-.223.359.359 0 01.293.13.529.529 0 01.109.357v3.119h2.217v-2.791a.9.9 0 01.183-.592.63.63 0 01.51-.223.363.363 0 01.3.13.538.538 0 01.107.357v3.119h2.218v-3.389a2.386 2.386 0 00-.507-1.647 1.726 1.726 0 00-1.352-.559z" transform="translate(-274.195 542.506)"/><path id="Контур_2657" data-name="Контур 2657" d="M475.127 385.311a.955.955 0 01-.2.63.678.678 0 01-.55.241.41.41 0 01-.329-.147.6.6 0 01-.127-.4v-3.061h-2.214v3.389a2.326 2.326 0 00.521 1.644 1.8 1.8 0 001.388.561 1.886 1.886 0 001-.3 1.769 1.769 0 00.686-.69h.022a.684.684 0 00-.045.335l.067.491h2v-5.431h-2.217z" transform="translate(-268.857 542.579)"/><path id="Контур_2658" data-name="Контур 2658" d="M480.352 382.486a1.884 1.884 0 00-1 .3 1.707 1.707 0 00-.684.69h-.023a.7.7 0 00.043-.339l-.065-.487h-2v5.431h2.216v-2.739a.946.946 0 01.2-.63.68.68 0 01.548-.237.411.411 0 01.331.147.586.586 0 01.125.395v3.065h2.216v-3.389a2.336 2.336 0 00-.521-1.647 1.806 1.806 0 00-1.386-.56z" transform="translate(-264.872 542.506)"/><path id="Контур_2659" data-name="Контур 2659" d="M482.645 381.105a1.189 1.189 0 00-.854.3 1.241 1.241 0 000 1.64 1.369 1.369 0 001.707 0 1.246 1.246 0 000-1.64 1.19 1.19 0 00-.853-.3z" transform="translate(-260.939 541.388)"/><path id="Прямоугольник_472" data-name="Прямоугольник 472" transform="translate(220.597 925.155)" d="M0 0h2.215v5.431H0z"/><path id="Контур_2660" data-name="Контур 2660" d="M487.62 386.331a1.2 1.2 0 01-.8-.257.99.99 0 01.005-1.423 1.2 1.2 0 01.795-.253 2.02 2.02 0 01.679.13 1.545 1.545 0 01.538.293v-1.979a3.518 3.518 0 00-1.6-.357 2.881 2.881 0 00-2.134.807 3.05 3.05 0 000 4.138 2.884 2.884 0 002.134.811 3.593 3.593 0 001.629-.371v-1.964a1.732 1.732 0 01-.494.264 1.964 1.964 0 01-.752.161z" transform="translate(-258.658 542.506)"/><path id="Контур_2661" data-name="Контур 2661" d="M490.862 382.486a5.325 5.325 0 00-2.073.335v1.946a3.011 3.011 0 011.684-.467c.608 0 .911.17.911.509v.013a3.492 3.492 0 00-2.172.286 1.7 1.7 0 00-.385 2.71 1.847 1.847 0 001.222.425 1.48 1.48 0 001.5-.847h.022l-.011.324.045.36h1.986v-3.389a2.007 2.007 0 00-.7-1.62 3.081 3.081 0 00-2.029-.585zm.3 3.908a.547.547 0 01-.451.206.312.312 0 01-.358-.346.435.435 0 01.246-.393 1.14 1.14 0 01.731-.063.906.906 0 01-.169.596z" transform="translate(-255.397 542.506)"/><path id="Контур_2662" data-name="Контур 2662" d="M495.491 386.573V385h1.251v-1.693h-1.251v-1.631h-2.149v1.631h-.654V385h.619v1.859a1.912 1.912 0 00.586 1.54 2.211 2.211 0 001.49.5 3.953 3.953 0 001.53-.239v-1.772a1.921 1.921 0 01-.826.206c-.397.001-.596-.171-.596-.521z" transform="translate(-251.858 541.849)"/><path id="Контур_2663" data-name="Контур 2663" d="M497.756 381.105a1.187 1.187 0 00-.853.3 1.247 1.247 0 000 1.64 1.366 1.366 0 001.705 0 1.236 1.236 0 000-1.64 1.182 1.182 0 00-.852-.3z" transform="translate(-248.693 541.388)"/><path id="Прямоугольник_473" data-name="Прямоугольник 473" transform="translate(247.955 925.155)" d="M0 0h2.217v5.431H0z"/><path id="Контур_2664" data-name="Контур 2664" d="M502.428 382.486a2.947 2.947 0 00-2.147.818 2.937 2.937 0 000 4.116 3.211 3.211 0 004.29 0 2.937 2.937 0 000-4.116 2.944 2.944 0 00-2.143-.818zm.655 3.644a.894.894 0 01-1.314 0 1.235 1.235 0 010-1.531.894.894 0 011.314 0 1.235 1.235 0 010 1.531z" transform="translate(-246.389 542.506)"/><path id="Контур_2665" data-name="Контур 2665" d="M508.054 382.486a1.891 1.891 0 00-1 .3 1.73 1.73 0 00-.684.69h-.022a.719.719 0 00.043-.339l-.067-.487h-2v5.431h2.216v-2.739a.946.946 0 01.2-.63.677.677 0 01.549-.237.413.413 0 01.331.147.586.586 0 01.125.395v3.065h2.216v-3.389a2.345 2.345 0 00-.521-1.647 1.808 1.808 0 00-1.386-.56z" transform="translate(-242.428 542.506)"/><path id="Контур_2666" data-name="Контур 2666" d="M513.141 385.324a3.552 3.552 0 00-1.472-.644c-.391-.087-.585-.19-.585-.3s.121-.165.369-.165a3.611 3.611 0 01.907.141 4.214 4.214 0 01.872.328v-1.859a5.489 5.489 0 00-1.977-.335 2.508 2.508 0 00-1.618.467 1.6 1.6 0 00-.576 1.312 1.493 1.493 0 00.467 1.189 3.183 3.183 0 001.358.625.645.645 0 00.1.023c.393.1.586.19.586.27 0 .11-.159.163-.478.163a3.384 3.384 0 01-.956-.168 4.7 4.7 0 01-.956-.384v1.91a5.116 5.116 0 001.933.349 3.119 3.119 0 001.825-.462 1.5 1.5 0 00.652-1.3 1.465 1.465 0 00-.451-1.16z" transform="translate(-238.592 542.506)"/></g><path id="Контур_2667" data-name="Контур 2667" d="M424.1 398.122v25a13.35 13.35 0 0113.335 13.334h25a38.378 38.378 0 00-38.335-38.334z" transform="translate(-286.762 531.06)"/><path id="Контур_2668" data-name="Контур 2668" d="M424.1 360.609a13.335 13.335 0 010-26.669v-25a38.335 38.335 0 000 76.669z" transform="translate(-286.762 531.06)"/></g></svg>