<svg xmlns="http://www.w3.org/2000/svg" width="123.962" height="54" viewBox="0 0 123.962 54"><g id="Сгруппировать_1628" data-name="Сгруппировать 1628" transform="translate(-98.999 -840)" fill="#231f20"><g id="Сгруппировать_1626" data-name="Сгруппировать 1626" transform="translate(143.969 855.509)"><path id="Контур_2647" data-name="Контур 2647" d="M473.673 375.637a2.408 2.408 0 01-.7.375 2.8 2.8 0 01-1.063.222 1.672 1.672 0 01-1.124-.36 1.4 1.4 0 01.008-2.005 1.685 1.685 0 011.117-.358 2.846 2.846 0 01.956.184 2.175 2.175 0 01.757.413v-2.786a4.974 4.974 0 00-2.249-.5 4.067 4.067 0 00-3.006 1.139 4.3 4.3 0 000 5.83 4.067 4.067 0 003.006 1.14 5.063 5.063 0 002.295-.52z" transform="translate(-444.763 -367.681)"/><path id="Контур_2648" data-name="Контур 2648" d="M479.632 371.494a2.637 2.637 0 00-1.239.321 2.8 2.8 0 00-.965.8v-4.253h-3.043v11.016h3.121v-3.856a1.333 1.333 0 01.283-.887.956.956 0 01.773-.337.586.586 0 01.467.207.833.833 0 01.176.558v4.314h3.121V374.6a3.282 3.282 0 00-.734-2.317 2.551 2.551 0 00-1.96-.789z" transform="translate(-442.797 -368.358)"/><path id="Контур_2649" data-name="Контур 2649" d="M489.761 371.973a4.529 4.529 0 00-6.043 0 4.138 4.138 0 000 5.8 4.53 4.53 0 006.043 0 4.137 4.137 0 000-5.8zm-2.1 3.978a1.259 1.259 0 01-1.851 0 1.739 1.739 0 010-2.157 1.259 1.259 0 011.851 0 1.739 1.739 0 010 2.157z" transform="translate(-440.556 -367.681)"/><path id="Контур_2650" data-name="Контур 2650" d="M495.006 371.139a3.1 3.1 0 00-.956.78l-.122-.872h-2.815v7.65h3.12v-3.184a1.544 1.544 0 01.567-1.314 2.118 2.118 0 011.316-.428 1.268 1.268 0 01.6.122v-3.045l-.5-.031a2.478 2.478 0 00-1.21.322z" transform="translate(-438.197 -367.681)"/><path id="Контур_2651" data-name="Контур 2651" d="M502.672 370.818a2.677 2.677 0 00-1.409.421 2.474 2.474 0 00-.963.972h-.031a.972.972 0 00.061-.474l-.092-.688h-2.815v7.65h3.121v-3.856a1.333 1.333 0 01.283-.887.956.956 0 01.773-.337.586.586 0 01.467.207.833.833 0 01.176.558v4.316h3.121v-4.775a3.283 3.283 0 00-.734-2.317 2.549 2.549 0 00-1.958-.79z" transform="translate(-436.461 -367.681)"/><path id="Контур_2652" data-name="Контур 2652" d="M510.147 377.733l-.017.459.063.5h2.8v-4.775a2.815 2.815 0 00-.986-2.28 4.349 4.349 0 00-2.853-.825 7.5 7.5 0 00-2.922.474v2.737a4.253 4.253 0 012.371-.657q1.285 0 1.285.719v.015a4.929 4.929 0 00-3.061.4 2.4 2.4 0 00-.542 3.819 2.589 2.589 0 001.72.6 2.085 2.085 0 002.113-1.193zm-.574-1.408a.777.777 0 01-.635.291.441.441 0 01-.506-.49.616.616 0 01.345-.552 1.616 1.616 0 011.031-.091 1.3 1.3 0 01-.235.843z" transform="translate(-434.221 -367.681)"/><path id="Контур_2653" data-name="Контур 2653" d="M451.682 386.54a2.54 2.54 0 001.149-.261V384.9a1.194 1.194 0 01-.349.186 1.368 1.368 0 01-.532.112.833.833 0 01-.561-.181.7.7 0 010-1 .835.835 0 01.557-.178 1.422 1.422 0 01.478.092 1.073 1.073 0 01.38.207v-1.394a2.487 2.487 0 00-1.126-.251 2.033 2.033 0 00-1.5.569 2.148 2.148 0 000 2.915 2.035 2.035 0 001.504.563z" transform="translate(-449.609 -364.473)"/><path id="Контур_2654" data-name="Контур 2654" d="M455.679 386.54a2.075 2.075 0 001.511-.579 2.066 2.066 0 000-2.9 2.267 2.267 0 00-3.02 0 2.066 2.066 0 000 2.9 2.072 2.072 0 001.509.579zm-.463-2.566a.631.631 0 01.927 0 .874.874 0 010 1.079.631.631 0 01-.927 0 .874.874 0 010-1.079z" transform="translate(-448.518 -364.473)"/><path id="Контур_2655" data-name="Контур 2655" d="M463.385 382.486a1.519 1.519 0 00-1.209.65 1.158 1.158 0 00-1.125-.65 1.263 1.263 0 00-.685.21 1.178 1.178 0 00-.463.486h-.015a.505.505 0 00.029-.238l-.046-.343h-1.406v3.825h1.559v-1.966a.626.626 0 01.131-.417.44.44 0 01.36-.157.254.254 0 01.205.092.379.379 0 01.078.251v2.2h1.559v-1.969a.633.633 0 01.131-.417.439.439 0 01.358-.157.255.255 0 01.207.092.379.379 0 01.078.251v2.2h1.559v-2.387a1.674 1.674 0 00-.356-1.16 1.215 1.215 0 00-.949-.396z" transform="translate(-447.173 -364.473)"/><path id="Контур_2656" data-name="Контур 2656" d="M470.038 382.486a1.523 1.523 0 00-1.209.65 1.158 1.158 0 00-1.125-.65 1.269 1.269 0 00-.685.21 1.166 1.166 0 00-.462.486h-.017a.492.492 0 00.032-.238l-.047-.343h-1.408v3.825h1.562v-1.966a.639.639 0 01.129-.417.442.442 0 01.359-.157.253.253 0 01.207.092.372.372 0 01.076.251v2.2h1.562v-1.969a.632.632 0 01.129-.417.444.444 0 01.36-.157.255.255 0 01.208.092.379.379 0 01.075.251v2.2h1.562v-2.387a1.68 1.68 0 00-.357-1.16 1.215 1.215 0 00-.951-.396z" transform="translate(-445.344 -364.473)"/><path id="Контур_2657" data-name="Контур 2657" d="M474.116 384.5a.673.673 0 01-.14.444.478.478 0 01-.388.17.289.289 0 01-.232-.1.42.42 0 01-.089-.281v-2.156h-1.559v2.387a1.639 1.639 0 00.367 1.158 1.267 1.267 0 00.978.4 1.328 1.328 0 00.7-.21 1.246 1.246 0 00.483-.486h.015a.482.482 0 00-.032.236l.047.346h1.408v-3.825h-1.562z" transform="translate(-443.532 -364.448)"/><path id="Контур_2658" data-name="Контур 2658" d="M479.251 382.486a1.327 1.327 0 00-.7.21 1.2 1.2 0 00-.482.486h-.017a.491.491 0 00.031-.238l-.046-.343h-1.408v3.825h1.561V384.5a.666.666 0 01.142-.444.479.479 0 01.386-.167.289.289 0 01.233.1.413.413 0 01.088.278v2.159h1.561v-2.387a1.646 1.646 0 00-.367-1.16 1.272 1.272 0 00-.982-.393z" transform="translate(-442.18 -364.473)"/><path id="Контур_2659" data-name="Контур 2659" d="M482.3 381.1a.837.837 0 00-.6.21.874.874 0 000 1.155.964.964 0 001.2 0 .878.878 0 000-1.155.838.838 0 00-.6-.21z" transform="translate(-440.845 -364.853)"/><path id="Прямоугольник_472" data-name="Прямоугольник 472" transform="translate(40.675 18.127)" d="M0 0h1.56v3.825H0z"/><path id="Контур_2660" data-name="Контур 2660" d="M486.637 385.194a.842.842 0 01-.564-.181.7.7 0 010-1 .842.842 0 01.56-.178 1.422 1.422 0 01.478.092 1.088 1.088 0 01.379.207v-1.394a2.478 2.478 0 00-1.124-.251 2.029 2.029 0 00-1.5.569 2.148 2.148 0 000 2.915 2.031 2.031 0 001.5.571 2.53 2.53 0 001.147-.261V384.9a1.22 1.22 0 01-.348.186 1.383 1.383 0 01-.528.108z" transform="translate(-440.071 -364.473)"/><path id="Контур_2661" data-name="Контур 2661" d="M490.111 382.486a3.75 3.75 0 00-1.46.236v1.371a2.121 2.121 0 011.186-.329c.428 0 .641.12.641.358v.009a2.459 2.459 0 00-1.53.2 1.2 1.2 0 00-.272 1.909 1.3 1.3 0 00.861.3 1.042 1.042 0 001.056-.6h.015l-.008.228.032.254h1.4v-2.387a1.414 1.414 0 00-.492-1.141 2.17 2.17 0 00-1.429-.408zm.21 2.753a.385.385 0 01-.317.145.219.219 0 01-.252-.244.306.306 0 01.173-.277.8.8 0 01.515-.045.638.638 0 01-.119.421z" transform="translate(-438.964 -364.473)"/><path id="Контур_2662" data-name="Контур 2662" d="M494.663 385.125v-1.109h.881v-1.192h-.881v-1.149h-1.513v1.149h-.46v1.192h.436v1.309a1.346 1.346 0 00.413 1.085 1.557 1.557 0 001.049.353 2.784 2.784 0 001.077-.168v-1.248a1.353 1.353 0 01-.581.145c-.284 0-.421-.121-.421-.367z" transform="translate(-437.763 -364.696)"/><path id="Контур_2663" data-name="Контур 2663" d="M497.413 381.1a.836.836 0 00-.6.21.878.878 0 000 1.155.962.962 0 001.2 0 .87.87 0 000-1.155.832.832 0 00-.6-.21z" transform="translate(-436.689 -364.853)"/><path id="Прямоугольник_473" data-name="Прямоугольник 473" transform="translate(59.944 18.127)" d="M0 0h1.561v3.825H0z"/><path id="Контур_2664" data-name="Контур 2664" d="M501.544 382.486a2.076 2.076 0 00-1.512.576 2.069 2.069 0 000 2.9 2.261 2.261 0 003.022 0 2.069 2.069 0 000-2.9 2.074 2.074 0 00-1.51-.576zm.462 2.567a.63.63 0 01-.926 0 .87.87 0 010-1.079.63.63 0 01.926 0 .87.87 0 010 1.079z" transform="translate(-435.907 -364.473)"/><path id="Контур_2665" data-name="Контур 2665" d="M506.953 382.486a1.331 1.331 0 00-.7.21 1.219 1.219 0 00-.482.486h-.015a.505.505 0 00.031-.238l-.047-.343h-1.406v3.825h1.561V384.5a.666.666 0 01.142-.444.477.477 0 01.386-.167.291.291 0 01.233.1.412.412 0 01.088.278v2.159h1.556v-2.387a1.652 1.652 0 00-.367-1.16 1.274 1.274 0 00-.98-.393z" transform="translate(-434.563 -364.473)"/><path id="Контур_2666" data-name="Контур 2666" d="M511.935 384.485a2.5 2.5 0 00-1.037-.454c-.275-.061-.412-.134-.412-.214s.085-.116.26-.116a2.542 2.542 0 01.639.1 2.966 2.966 0 01.614.231v-1.309a3.865 3.865 0 00-1.392-.236 1.767 1.767 0 00-1.14.329 1.124 1.124 0 00-.405.924 1.052 1.052 0 00.329.838 2.241 2.241 0 00.956.44.45.45 0 00.069.017c.277.071.413.134.413.19 0 .078-.112.115-.337.115a2.383 2.383 0 01-.673-.119 3.314 3.314 0 01-.673-.27v1.345a3.6 3.6 0 001.362.246 2.2 2.2 0 001.285-.325 1.057 1.057 0 00.459-.914 1.032 1.032 0 00-.317-.818z" transform="translate(-433.261 -364.473)"/></g><path id="Контур_2668" data-name="Контур 2668" d="M412.761 345.332a9.392 9.392 0 010-18.784V308.94a27 27 0 000 54z" transform="translate(-286.762 531.06)"/></g></svg>